# xmcd CD database file
#
# Track frame offsets:
#	150
#	13500
#	25217
#
# Disc length: 578 seconds
#
# Revision: 0
# Processed by: cddbd v1.5.2PL0 Copyright (c) Steve Scherf et al.
# Submitted via: CDex 1.81
#
DISCID=17024003
DTITLE=Zuraw, Roger [CDN-15-Ask, Then Celebrate-blc) - Ask, Then Celebrate
DYEAR=2015
DGENRE=Blues
TTITLE0=Would You Be My Valentine
TTITLE1=I'm In Love and It's Christmas
TTITLE2=Roger Zuraw - Maybe I'll Keep You (50th Anniversary Song)
EXTD=YEAR: 2015
EXTT0=
EXTT1=
EXTT2=
PLAYORDER=
